# ProBuilder 4.1.0
# https://unity3d.com/unity/features/worldbuilding/probuilder
# 2019-11-04 PM 3:33:46

mtllib ./harfDonut.mtl
o harfDonut

g harfDonut
v 0 0 0
v 0.15 0.08660253 0
v 0.1498934 -0.08645647 -1.090922E-06
v 0.004277557 0 -0.0652631
v 0.1529943 0.08660253 -0.04568417
v 0.1529943 -0.08660254 -0.04568417
v 0.01703709 0 -0.1294095
v 0.161926 0.08660253 -0.09058668
v 0.1619259 -0.08660254 -0.09058668
v 0.03806025 0 -0.1913417
v 0.1766422 0.08660253 -0.1339392
v 0.1766421 -0.08660254 -0.1339392
v 0.06698731 0 -0.25
v 0.1968911 0.08660253 -0.175
v 0.1968911 -0.08660254 -0.175
v 0.1033233 0 -0.3043807
v 0.2223263 0.08660253 -0.2130665
v 0.2223263 -0.08660254 -0.2130665
v 0.1464466 0 -0.3535534
v 0.2525126 0.08660253 -0.2474874
v 0.2525126 -0.08660254 -0.2474874
v 0.1956193 0 -0.3966767
v 0.2869335 0.08660253 -0.2776737
v 0.2869335 -0.08660254 -0.2776737
v 0.25 0 -0.4330127
v 0.325 0.08660253 -0.3031089
v 0.325 -0.08660254 -0.3031089
v 0.3086583 0 -0.4619398
v 0.3660608 0.08660253 -0.3233578
v 0.3660608 -0.08660254 -0.3233579
v 0.3705905 0 -0.4829629
v 0.4094133 0.08660253 -0.338074
v 0.4094133 -0.08660254 -0.3380741
v 0.4347369 0 -0.4957224
v 0.4543158 0.08660253 -0.3470057
v 0.4543158 -0.08660254 -0.3470057
v 0.5 0 -0.5
v 0.5 0.08660253 -0.35
v 0.5 -0.08660254 -0.35
v 0.5652631 0 -0.4957224
v 0.5456842 0.08660253 -0.3470057
v 0.5456842 -0.08660254 -0.3470057
v 0.6294095 0 -0.4829629
v 0.5905867 0.08660253 -0.338074
v 0.5905867 -0.08660254 -0.3380741
v 0.6913417 0 -0.4619398
v 0.6339392 0.08660253 -0.3233578
v 0.6339392 -0.08660254 -0.3233579
v 0.7500001 0 -0.4330127
v 0.6750001 0.08660253 -0.3031089
v 0.6750001 -0.08660254 -0.3031089
v 0.8043808 0 -0.3966767
v 0.7130665 0.08660253 -0.2776737
v 0.7130666 -0.08660254 -0.2776737
v 0.8535534 0 -0.3535534
v 0.7474874 0.08660253 -0.2474874
v 0.7474874 -0.08660254 -0.2474874
v 0.8966767 0 -0.3043807
v 0.7776737 0.08660253 -0.2130665
v 0.7776737 -0.08660254 -0.2130665
v 0.9330127 0 -0.25
v 0.8031089 0.08660253 -0.175
v 0.8031089 -0.08660254 -0.175
v 0.9619397 0 -0.1913417
v 0.8233578 0.08660253 -0.1339392
v 0.8233578 -0.08660254 -0.1339392
v 0.9829628 0 -0.1294096
v 0.838074 0.08660253 -0.09058669
v 0.838074 -0.08660254 -0.0905867
v 0.9957225 0 -0.06526316
v 0.8470057 0.08660253 -0.04568421
v 0.8470057 -0.08660254 -0.04568421
v 1 0 4.371139E-08
v 0.85 0.08660253 3.059797E-08
v 0.8505228 -0.08625147 -1.055942E-06

vt 0 0
vt -0.15 0
vt 0 0.08660253
vt 0 -0.08660254
vt 0.15 0
vt -0.004277557 -0.0652631
vt -0.1529943 -0.04568417
vt 0.04568417 0.08660253
vt 0.04568417 -0.08660254
vt 0.1529943 -0.04568417
vt 0.004277557 -0.0652631
vt -0.01703709 -0.1294095
vt -0.161926 -0.09058668
vt 0.09058668 0.08660253
vt 0.09058668 -0.08660254
vt 0.1619259 -0.09058668
vt 0.01703709 -0.1294095
vt -0.03806025 -0.1913417
vt -0.1766422 -0.1339392
vt 0.1339392 0.08660253
vt 0.1339392 -0.08660254
vt 0.1766421 -0.1339392
vt 0.03806025 -0.1913417
vt -0.06698731 -0.25
vt -0.1968911 -0.175
vt 0.175 0.08660253
vt 0.175 -0.08660254
vt 0.1968911 -0.175
vt 0.06698731 -0.25
vt -0.1033233 -0.3043807
vt -0.2223263 -0.2130665
vt 0.2130665 0.08660253
vt 0.2130665 -0.08660254
vt 0.2223263 -0.2130665
vt 0.1033233 -0.3043807
vt -0.1464466 -0.3535534
vt -0.2525126 -0.2474874
vt 0.2474874 0.08660253
vt 0.2474874 -0.08660254
vt 0.2525126 -0.2474874
vt 0.1464466 -0.3535534
vt 0.2525126 0.08660253
vt 0.2525126 -0.08660254
vt -0.1956193 -0.3966767
vt -0.2869335 -0.2776737
vt 0.2869335 0.08660253
vt 0.2869335 -0.08660254
vt 0.2869335 -0.2776737
vt 0.1956193 -0.3966767
vt -0.25 -0.4330127
vt -0.325 -0.3031089
vt 0.325 0.08660253
vt 0.325 -0.08660254
vt 0.325 -0.3031089
vt 0.25 -0.4330127
vt -0.3086583 -0.4619398
vt -0.3660608 -0.3233578
vt 0.3660608 0.08660253
vt 0.3660608 -0.08660254
vt 0.3660608 -0.3233579
vt 0.3086583 -0.4619398
vt -0.3705905 -0.4829629
vt -0.4094133 -0.338074
vt 0.4094133 0.08660253
vt 0.4094133 -0.08660254
vt 0.4094133 -0.3380741
vt 0.3705905 -0.4829629
vt -0.4347369 -0.4957224
vt -0.4543158 -0.3470057
vt 0.4543158 0.08660253
vt 0.4543158 -0.08660254
vt 0.4543158 -0.3470057
vt 0.4347369 -0.4957224
vt -0.5 -0.5
vt -0.5 -0.35
vt 0.5 0.08660253
vt 0.5 -0.08660254
vt 0.5 -0.35
vt 0.5 -0.5
vt -0.5652631 -0.4957224
vt -0.5456842 -0.3470057
vt 0.5456842 0.08660253
vt 0.5456842 -0.08660254
vt 0.5456842 -0.3470057
vt 0.5652631 -0.4957224
vt -0.6294095 -0.4829629
vt -0.5905867 -0.338074
vt 0.5905867 0.08660253
vt 0.5905867 -0.08660254
vt 0.5905867 -0.3380741
vt 0.6294095 -0.4829629
vt -0.6913417 -0.4619398
vt -0.6339392 -0.3233578
vt 0.6339392 0.08660253
vt 0.6339392 -0.08660254
vt 0.6339392 -0.3233579
vt 0.6913417 -0.4619398
vt -0.7500001 -0.4330127
vt -0.6750001 -0.3031089
vt 0.6750001 0.08660253
vt 0.6750001 -0.08660254
vt 0.6750001 -0.3031089
vt 0.7500001 -0.4330127
vt -0.8043808 -0.3966767
vt -0.7130665 -0.2776737
vt 0.7130665 0.08660253
vt 0.7130666 -0.08660254
vt 0.7130666 -0.2776737
vt 0.8043808 -0.3966767
vt -0.8535534 -0.3535534
vt -0.7474874 -0.2474874
vt 0.7474874 0.08660253
vt 0.7474874 -0.08660254
vt 0.7474874 -0.2474874
vt 0.8535534 -0.3535534
vt -0.2474874 0.08660253
vt -0.2474874 -0.08660254
vt -0.8966767 -0.3043807
vt -0.7776737 -0.2130665
vt -0.2130665 0.08660253
vt -0.2130665 -0.08660254
vt 0.7776737 -0.2130665
vt 0.8966767 -0.3043807
vt -0.9330127 -0.25
vt -0.8031089 -0.175
vt -0.175 0.08660253
vt -0.175 -0.08660254
vt 0.8031089 -0.175
vt 0.9330127 -0.25
vt -0.9619397 -0.1913417
vt -0.8233578 -0.1339392
vt -0.1339392 0.08660253
vt -0.1339392 -0.08660254
vt 0.8233578 -0.1339392
vt 0.9619397 -0.1913417
vt -0.9829628 -0.1294096
vt -0.838074 -0.09058669
vt -0.09058669 0.08660253
vt -0.0905867 -0.08660254
vt 0.838074 -0.0905867
vt 0.9829628 -0.1294096
vt -0.9957225 -0.06526316
vt -0.8470057 -0.04568421
vt -0.04568421 0.08660253
vt -0.04568421 -0.08660254
vt 0.8470057 -0.04568421
vt 0.9957225 -0.06526316
vt -1 4.371139E-08
vt -0.85 3.059797E-08
vt 0.85 3.059797E-08
vt 1 4.371139E-08
vt 0.15 0.08660253
vt 0.1498934 -0.08645647
vt 0.85 0.08660253
vt 0.8505228 -0.08625147

vn -0.9979109 -0.0001278536 -0.0646062
vn 0.498794 0.8661037 0.03269274
vn 0.4984348 -0.8662027 0.03543653
vn -0.9914449 8.945498E-08 -0.1305262
vn 0.4945453 0.8666656 0.06569379
vn 0.4944544 -0.8666434 0.06666273
vn -0.9659258 8.945496E-08 -0.2588193
vn 0.4817986 0.8667202 0.1290976
vn 0.4817984 -0.8667203 0.1290975
vn -0.9238795 5.963664E-08 -0.3826835
vn 0.4608262 0.8667202 0.1908803
vn 0.460826 -0.8667204 0.1908803
vn -0.8660254 8.945496E-08 -0.4999999
vn 0.4319686 0.8667203 0.2493975
vn 0.4319686 -0.8667203 0.2493974
vn -0.7933533 5.963664E-08 -0.6087614
vn 0.3957205 0.8667202 0.3036468
vn 0.3957203 -0.8667203 0.3036467
vn -0.7071069 5.963663E-08 -0.7071066
vn 0.3527012 0.8667202 0.3527009
vn 0.3527011 -0.8667203 0.3527007
vn -0.6087614 0 -0.7933533
vn 0.3036467 0.8667202 0.3957205
vn 0.3036467 -0.8667203 0.3957204
vn -0.4999997 5.963664E-08 -0.8660256
vn 0.2493973 0.8667203 0.4319688
vn 0.2493971 -0.8667203 0.4319687
vn -0.3826834 5.963663E-08 -0.9238795
vn 0.1908804 0.8667202 0.4608261
vn 0.1908804 -0.8667204 0.4608259
vn -0.2588193 5.963664E-08 -0.9659258
vn 0.1290976 0.8667202 0.4817986
vn 0.1290975 -0.8667203 0.4817984
vn -0.1305261 2.981832E-08 -0.9914449
vn 0.06510566 0.8667202 0.4945274
vn 0.06510562 -0.8667204 0.4945272
vn -1.863645E-08 5.963664E-08 -1
vn 1.492113E-08 0.8667202 0.4987946
vn 1.305598E-08 -0.8667203 0.4987944
vn 0.130526 5.963665E-08 -0.9914449
vn -0.06510558 0.8667202 0.4945274
vn -0.06510559 -0.8667204 0.4945272
vn 0.2588192 2.981832E-08 -0.9659258
vn -0.1290976 0.8667202 0.4817986
vn -0.1290975 -0.8667204 0.4817984
vn 0.3826832 5.963663E-08 -0.9238796
vn -0.1908803 0.8667203 0.4608261
vn -0.1908802 -0.8667204 0.460826
vn 0.4999997 8.945496E-08 -0.8660256
vn -0.2493973 0.8667202 0.4319688
vn -0.2493972 -0.8667204 0.4319686
vn 0.6087619 1.192733E-07 -0.793353
vn -0.3036469 0.8667202 0.3957205
vn -0.3036467 -0.8667204 0.3957202
vn 0.7071068 5.963663E-08 -0.7071067
vn -0.3527012 0.8667202 0.3527008
vn -0.3527012 -0.8667203 0.3527007
vn 0.7933534 1.192733E-07 -0.6087614
vn -0.3957203 0.8667202 0.3036471
vn -0.39572 -0.8667204 0.303647
vn 0.8660255 5.963664E-08 -0.4999998
vn -0.4319688 0.8667202 0.2493971
vn -0.4319689 -0.8667203 0.2493969
vn 0.9238796 5.963663E-08 -0.3826833
vn -0.4608261 0.8667203 0.19088
vn -0.460826 -0.8667203 0.1908802
vn 0.9659256 8.945496E-08 -0.2588197
vn -0.4817986 0.8667201 0.1290981
vn -0.4817982 -0.8667204 0.129098
vn 0.9914746 -2.421387E-05 -0.1302997
vn -0.4945273 0.8667202 0.065106
vn -0.4939061 -0.8668234 0.068367
vn 0.997859 -0.0001235075 -0.06540256
vn -0.4987725 0.865881 0.0384207
vn -0.4964075 -0.8669527 0.04441351
vn 3.64077E-06 -6.306E-06 1

usemtl ProBuilderDefault
f 2/152/76 1/1/76 3/153/76
f 73/151/76 74/154/76 75/155/76
f 5/7/5 4/6/4 1/1/1
f 1/1/1 2/2/2 5/7/5
f 6/9/6 5/8/5 2/3/2
f 2/3/2 3/4/3 6/9/6
f 4/11/4 6/10/6 3/5/3
f 3/5/3 1/1/1 4/11/4
f 8/13/8 7/12/7 4/6/4
f 4/6/4 5/7/5 8/13/8
f 9/15/9 8/14/8 5/8/5
f 5/8/5 6/9/6 9/15/9
f 7/17/7 9/16/9 6/10/6
f 6/10/6 4/11/4 7/17/7
f 11/19/11 10/18/10 7/12/7
f 7/12/7 8/13/8 11/19/11
f 12/21/12 11/20/11 8/14/8
f 8/14/8 9/15/9 12/21/12
f 10/23/10 12/22/12 9/16/9
f 9/16/9 7/17/7 10/23/10
f 14/25/14 13/24/13 10/18/10
f 10/18/10 11/19/11 14/25/14
f 15/27/15 14/26/14 11/20/11
f 11/20/11 12/21/12 15/27/15
f 13/29/13 15/28/15 12/22/12
f 12/22/12 10/23/10 13/29/13
f 17/31/17 16/30/16 13/24/13
f 13/24/13 14/25/14 17/31/17
f 18/33/18 17/32/17 14/26/14
f 14/26/14 15/27/15 18/33/18
f 16/35/16 18/34/18 15/28/15
f 15/28/15 13/29/13 16/35/16
f 20/37/20 19/36/19 16/30/16
f 16/30/16 17/31/17 20/37/20
f 21/39/21 20/38/20 17/32/17
f 17/32/17 18/33/18 21/39/21
f 19/41/19 21/40/21 18/34/18
f 18/34/18 16/35/16 19/41/19
f 23/45/23 22/44/22 19/36/19
f 19/36/19 20/37/20 23/45/23
f 24/47/24 23/46/23 20/42/20
f 20/42/20 21/43/21 24/47/24
f 22/49/22 24/48/24 21/40/21
f 21/40/21 19/41/19 22/49/22
f 26/51/26 25/50/25 22/44/22
f 22/44/22 23/45/23 26/51/26
f 27/53/27 26/52/26 23/46/23
f 23/46/23 24/47/24 27/53/27
f 25/55/25 27/54/27 24/48/24
f 24/48/24 22/49/22 25/55/25
f 29/57/29 28/56/28 25/50/25
f 25/50/25 26/51/26 29/57/29
f 30/59/30 29/58/29 26/52/26
f 26/52/26 27/53/27 30/59/30
f 28/61/28 30/60/30 27/54/27
f 27/54/27 25/55/25 28/61/28
f 32/63/32 31/62/31 28/56/28
f 28/56/28 29/57/29 32/63/32
f 33/65/33 32/64/32 29/58/29
f 29/58/29 30/59/30 33/65/33
f 31/67/31 33/66/33 30/60/30
f 30/60/30 28/61/28 31/67/31
f 35/69/35 34/68/34 31/62/31
f 31/62/31 32/63/32 35/69/35
f 36/71/36 35/70/35 32/64/32
f 32/64/32 33/65/33 36/71/36
f 34/73/34 36/72/36 33/66/33
f 33/66/33 31/67/31 34/73/34
f 38/75/38 37/74/37 34/68/34
f 34/68/34 35/69/35 38/75/38
f 39/77/39 38/76/38 35/70/35
f 35/70/35 36/71/36 39/77/39
f 37/79/37 39/78/39 36/72/36
f 36/72/36 34/73/34 37/79/37
f 41/81/41 40/80/40 37/74/37
f 37/74/37 38/75/38 41/81/41
f 42/83/42 41/82/41 38/76/38
f 38/76/38 39/77/39 42/83/42
f 40/85/40 42/84/42 39/78/39
f 39/78/39 37/79/37 40/85/40
f 44/87/44 43/86/43 40/80/40
f 40/80/40 41/81/41 44/87/44
f 45/89/45 44/88/44 41/82/41
f 41/82/41 42/83/42 45/89/45
f 43/91/43 45/90/45 42/84/42
f 42/84/42 40/85/40 43/91/43
f 47/93/47 46/92/46 43/86/43
f 43/86/43 44/87/44 47/93/47
f 48/95/48 47/94/47 44/88/44
f 44/88/44 45/89/45 48/95/48
f 46/97/46 48/96/48 45/90/45
f 45/90/45 43/91/43 46/97/46
f 50/99/50 49/98/49 46/92/46
f 46/92/46 47/93/47 50/99/50
f 51/101/51 50/100/50 47/94/47
f 47/94/47 48/95/48 51/101/51
f 49/103/49 51/102/51 48/96/48
f 48/96/48 46/97/46 49/103/49
f 53/105/53 52/104/52 49/98/49
f 49/98/49 50/99/50 53/105/53
f 54/107/54 53/106/53 50/100/50
f 50/100/50 51/101/51 54/107/54
f 52/109/52 54/108/54 51/102/51
f 51/102/51 49/103/49 52/109/52
f 56/111/56 55/110/55 52/104/52
f 52/104/52 53/105/53 56/111/56
f 57/113/57 56/112/56 53/106/53
f 53/106/53 54/107/54 57/113/57
f 55/115/55 57/114/57 54/108/54
f 54/108/54 52/109/52 55/115/55
f 59/119/59 58/118/58 55/110/55
f 55/110/55 56/111/56 59/119/59
f 60/121/60 59/120/59 56/116/56
f 56/116/56 57/117/57 60/121/60
f 58/123/58 60/122/60 57/114/57
f 57/114/57 55/115/55 58/123/58
f 62/125/62 61/124/61 58/118/58
f 58/118/58 59/119/59 62/125/62
f 63/127/63 62/126/62 59/120/59
f 59/120/59 60/121/60 63/127/63
f 61/129/61 63/128/63 60/122/60
f 60/122/60 58/123/58 61/129/61
f 65/131/65 64/130/64 61/124/61
f 61/124/61 62/125/62 65/131/65
f 66/133/66 65/132/65 62/126/62
f 62/126/62 63/127/63 66/133/66
f 64/135/64 66/134/66 63/128/63
f 63/128/63 61/129/61 64/135/64
f 68/137/68 67/136/67 64/130/64
f 64/130/64 65/131/65 68/137/68
f 69/139/69 68/138/68 65/132/65
f 65/132/65 66/133/66 69/139/69
f 67/141/67 69/140/69 66/134/66
f 66/134/66 64/135/64 67/141/67
f 71/143/71 70/142/70 67/136/67
f 67/136/67 68/137/68 71/143/71
f 72/145/72 71/144/71 68/138/68
f 68/138/68 69/139/69 72/145/72
f 70/147/70 72/146/72 69/140/69
f 69/140/69 67/141/67 70/147/70
f 74/149/74 73/148/73 70/142/70
f 70/142/70 71/143/71 74/149/74
f 75/4/75 74/3/74 71/144/71
f 71/144/71 72/145/72 75/4/75
f 73/151/73 75/150/75 72/146/72
f 72/146/72 70/147/70 73/151/73

